<svg xmlns="http://www.w3.org/2000/svg" width="960" height="600" viewBox="0 0 960 600" role="img" aria-label="Placeholder for the FIR → case → contradiction screen recording">
  <defs>
    <linearGradient id="g" x1="0" y1="0" x2="0" y2="1">
      <stop offset="0%" stop-color="#0C3162"/><stop offset="100%" stop-color="#08213F"/>
    </linearGradient>
    <pattern id="grid" width="40" height="40" patternUnits="userSpaceOnUse">
      <path d="M40 0 L0 0 0 40" fill="none" stroke="#14406F" stroke-width="1"/>
    </pattern>
  </defs>
  <rect width="960" height="600" rx="10" fill="url(#g)"/>
  <rect width="960" height="600" rx="10" fill="url(#grid)" opacity="0.5"/>
  <rect x="0.5" y="0.5" width="959" height="599" rx="10" fill="none" stroke="#1d4d85"/>
  <rect x="28" y="28" width="904" height="34" rx="6" fill="#0A2B53" stroke="#1d4d85"/>
  <circle cx="48" cy="45" r="5" fill="#E5534B" opacity="0.75"/>
  <circle cx="66" cy="45" r="5" fill="#E3B341" opacity="0.75"/>
  <circle cx="84" cy="45" r="5" fill="#3FB950" opacity="0.75"/>
  <rect x="112" y="36" width="800" height="18" rx="4" fill="#0F3667"/>
  <text x="126" y="49" font-family="Segoe UI, Helvetica, Arial, sans-serif" font-size="11" fill="#6F9BCB">raksha-drishti-v2-byahjtre.onslate.in</text>
  <g>
    <rect x="28" y="86" width="150" height="30" rx="15" fill="#1a1030" stroke="#4FA3E3" stroke-width="1.4"/>
    <circle cx="50" cy="101" r="6" fill="#4FA3E3"><animate attributeName="opacity" values="1;0.15;1" dur="1.6s" repeatCount="indefinite"/></circle>
    <text x="66" y="106" font-family="Segoe UI, Helvetica, Arial, sans-serif" font-size="12.5" font-weight="700" fill="#4FA3E3" letter-spacing="1.2">SHOT 02 · ~10s</text>
  </g>
  <text x="28" y="182" font-family="Segoe UI, Helvetica, Arial, sans-serif" font-size="34" font-weight="700" fill="#FFFFFF">FIR → case → contradiction</text>
  <rect x="28" y="200" width="180" height="4" rx="2" fill="#4FA3E3"/>
  <text x="28" y="240" font-family="Segoe UI, Helvetica, Arial, sans-serif" font-size="14" fill="#8FB4DC">Placeholder — replace this file with the recorded GIF.</text>
  <circle cx="42" cy="285" r="13" fill="#0F3667" stroke="#4FA3E3" stroke-width="1.2"/>
  <text x="42" y="290" text-anchor="middle" font-family="Segoe UI, Helvetica, Arial, sans-serif" font-size="12.5" font-weight="700" fill="#4FA3E3">1</text>
  <text x="70" y="290" font-family="Segoe UI, Helvetica, Arial, sans-serif" font-size="15" fill="#C9DEF5">Filter the FIR Index to one district</text>
  <circle cx="42" cy="331" r="13" fill="#0F3667" stroke="#4FA3E3" stroke-width="1.2"/>
  <text x="42" y="336" text-anchor="middle" font-family="Segoe UI, Helvetica, Arial, sans-serif" font-size="12.5" font-weight="700" fill="#4FA3E3">2</text>
  <text x="70" y="336" font-family="Segoe UI, Helvetica, Arial, sans-serif" font-size="15" fill="#C9DEF5">Open a scenario case (not a bulk FIR)</text>
  <circle cx="42" cy="377" r="13" fill="#0F3667" stroke="#4FA3E3" stroke-width="1.2"/>
  <text x="42" y="382" text-anchor="middle" font-family="Segoe UI, Helvetica, Arial, sans-serif" font-size="12.5" font-weight="700" fill="#4FA3E3">3</text>
  <text x="70" y="382" font-family="Segoe UI, Helvetica, Arial, sans-serif" font-size="15" fill="#C9DEF5">Scroll to the contradiction panel</text>
  <circle cx="42" cy="423" r="13" fill="#0F3667" stroke="#4FA3E3" stroke-width="1.2"/>
  <text x="42" y="428" text-anchor="middle" font-family="Segoe UI, Helvetica, Arial, sans-serif" font-size="12.5" font-weight="700" fill="#4FA3E3">4</text>
  <text x="70" y="428" font-family="Segoe UI, Helvetica, Arial, sans-serif" font-size="15" fill="#C9DEF5">Hold on the cited record IDs</text>
  <rect x="28" y="530" width="904" height="42" rx="6" fill="#0A2B53" stroke="#1d4d85"/>
  <text x="46" y="556" font-family="Segoe UI, Helvetica, Arial, sans-serif" font-size="12" fill="#6F9BCB">Record at 1280×800 · trim to the listed beats · export GIF ≤ 8 MB · save as assets/demo-case.gif</text>
</svg>